HIERARCHY
ROOT Hips
{
	OFFSET 0.000000 0.000000 0.000000
	CHANNELS 6 Xposition Yposition Zposition Zrotation Yrotation Xrotation 
	JOINT LHipJoint
	{
		OFFSET 0.000000 0.000000 0.000000
		CHANNELS 3 Zrotation Yrotation Xrotation
		JOINT LeftUpLeg
		{
			OFFSET 1.363060 -1.794630 0.839290
			CHANNELS 3 Zrotation Yrotation Xrotation
			JOINT LeftLeg
			{
				OFFSET 2.448110 -6.726130 0.000000
				CHANNELS 3 Zrotation Yrotation Xrotation
				JOINT LeftFoot
				{
					OFFSET 2.562200 -7.039590 0.000000
					CHANNELS 3 Zrotation Yrotation Xrotation
					JOINT LeftToeBase
					{
						OFFSET 0.157640 -0.433110 2.322550
						CHANNELS 3 Zrotation Yrotation Xrotation
						End Site
						{
							OFFSET 0.000000 0.000000 0.000000
						}
					}
				}
			}
		}
	}
	JOINT RHipJoint
	{
		OFFSET 0.000000 0.000000 0.000000
		CHANNELS 3 Zrotation Yrotation Xrotation
		JOINT RightUpLeg
		{
			OFFSET -1.305520 -1.794630 0.839290
			CHANNELS 3 Zrotation Yrotation Xrotation
			JOINT RightLeg
			{
				OFFSET -2.542530 -6.985550 0.000000
				CHANNELS 3 Zrotation Yrotation Xrotation
				JOINT RightFoot
				{
					OFFSET -2.568260 -7.056230 0.000000
					CHANNELS 3 Zrotation Yrotation Xrotation
					JOINT RightToeBase
					{
						OFFSET -0.164730 -0.452590 2.363150
						CHANNELS 3 Zrotation Yrotation Xrotation
						End Site
						{
							OFFSET 0.000000 0.000000 0.000000
						}
					}
				}
			}
		}
	}
	JOINT LowerBack
	{
		OFFSET 0.000000 0.000000 0.000000
		CHANNELS 3 Zrotation Yrotation Xrotation
		JOINT Spine
		{
			OFFSET 0.028270 2.035590 -0.193380
			CHANNELS 3 Zrotation Yrotation Xrotation
			JOINT Spine1
			{
				OFFSET 0.056720 2.048850 -0.042750
				CHANNELS 3 Zrotation Yrotation Xrotation
				JOINT Neck
				{
					OFFSET 0.000000 0.000000 0.000000
					CHANNELS 3 Zrotation Yrotation Xrotation
					JOINT Neck1
					{
						OFFSET -0.054170 1.746240 0.172020
						CHANNELS 3 Zrotation Yrotation Xrotation
						JOINT Head
						{
							OFFSET 0.104070 1.761360 -0.123970
							CHANNELS 3 Zrotation Yrotation Xrotation
							End Site
							{
								OFFSET 0.000000 0.000000 0.000000
							}
						}
					}
				}
				JOINT LeftShoulder
				{
					OFFSET 0.000000 0.000000 0.000000
					CHANNELS 3 Zrotation Yrotation Xrotation
					JOINT LeftArm
					{
						OFFSET 3.362410 1.200890 -0.311210
						CHANNELS 3 Zrotation Yrotation Xrotation
						JOINT LeftForeArm
						{
							OFFSET 4.983000 -0.000000 -0.000000
							CHANNELS 3 Zrotation Yrotation Xrotation
							JOINT LeftHand
							{
								OFFSET 3.483560 -0.000000 -0.000000
								CHANNELS 3 Zrotation Yrotation Xrotation
								JOINT LeftFingerBase
								{
									OFFSET 0.000000 0.000000 0.000000
									CHANNELS 3 Zrotation Yrotation Xrotation
									JOINT LeftHandIndex1
									{
										OFFSET 0.715260 -0.000000 -0.000000
										CHANNELS 3 Zrotation Yrotation Xrotation
										End Site
										{
											OFFSET 0.000000 0.000000 0.000000
										}
									}
								}
								JOINT LThumb
								{
									OFFSET 0.000000 0.000000 0.000000
									CHANNELS 3 Zrotation Yrotation Xrotation
									End Site
									{
										OFFSET 0.000000 0.000000 0.000000
									}
								}
							}
						}
					}
				}
				JOINT RightShoulder
				{
					OFFSET 0.000000 0.000000 0.000000
					CHANNELS 3 Zrotation Yrotation Xrotation
					JOINT RightArm
					{
						OFFSET -3.136600 1.374050 -0.404650
						CHANNELS 3 Zrotation Yrotation Xrotation
						JOINT RightForeArm
						{
							OFFSET -5.241900 -0.000000 -0.000000
							CHANNELS 3 Zrotation Yrotation Xrotation
							JOINT RightHand
							{
								OFFSET -3.444170 -0.000000 -0.000000
								CHANNELS 3 Zrotation Yrotation Xrotation
								JOINT RightFingerBase
								{
									OFFSET 0.000000 0.000000 0.000000
									CHANNELS 3 Zrotation Yrotation Xrotation
									JOINT RightHandIndex1
									{
										OFFSET -0.622530 -0.000000 -0.000000
										CHANNELS 3 Zrotation Yrotation Xrotation
										End Site
										{
											OFFSET 0.000000 0.000000 0.000000
										}
									}
								}
								JOINT RThumb
								{
									OFFSET 0.000000 0.000000 0.000000
									CHANNELS 3 Zrotation Yrotation Xrotation
									End Site
									{
										OFFSET 0.000000 0.000000 0.000000
									}
								}
							}
						}
					}
				}
			}
		}
	}
}
MOTION
Frames: 6
Frame Time: 0.008333
19.613474 17.740661 1.374988 105.726607 -85.089844 -102.210738 -6.288893 -5.623294 -1.420900 -8.088396 -0.326940 -16.809370 2.356799 13.355331 34.171155 -6.106315 16.869407 0.478799 2.188800 -9.248700 -26.576500 4.134298 3.809501 -1.831426 -4.801788 4.191542 -15.155434 -3.148800 -13.147567 35.962831 4.169516 -13.539313 -6.014054 -0.176600 -2.707100 7.464400 -7.217722 0.046148 -1.175993 -0.589174 0.560717 -0.751090 1.591523 -0.158502 5.786042 -7.525427 1.110339 -5.184562 1.454515 1.469309 18.550466 1.041000 0.533400 5.308300 -9.050895 -7.959939 1.693771 -62.050397 -6.167830 25.696266 23.913363 -34.746292 -11.661384 -0.002094 1.627720 8.966712 51.084600 -27.616959 -31.999300 -7.125000 0.000000 0.000000 11.141800 -12.010400 -13.444200 11.129337 7.660466 1.083094 65.636558 -0.767431 33.043149 -25.144870 36.792629 -11.079591 1.720613 2.416303 -15.201056 -17.559741 -36.964693 12.609700 7.125000 0.000000 0.000000 21.602200 -68.956500 -12.618200 
19.609716 17.744750 1.354761 111.353654 -85.855284 -107.434045 -6.296365 -5.583816 -1.457188 -7.054915 -0.497776 -17.174058 2.482031 13.411224 34.494103 -6.214209 17.025876 0.283702 2.190100 -9.251300 -26.584700 4.283403 3.943172 -1.828589 -3.899879 5.165080 -15.206294 -2.967139 -13.074781 35.498214 4.384466 -14.032027 -5.646618 -0.184800 -2.769100 7.636500 -6.115637 0.119482 -1.626447 -0.483051 0.623481 -0.881180 1.232843 -0.064719 5.757088 -7.698082 1.154004 -5.337848 1.685525 1.512610 18.672050 1.177300 0.548300 5.377900 -9.032082 -7.955946 1.681448 -61.928581 -6.022492 25.896867 24.223790 -35.000594 -11.834250 0.002099 1.608731 8.575986 50.872112 -27.642138 -31.788700 -7.125000 0.000000 0.000000 11.019200 -11.887000 -13.273100 11.114643 7.660599 1.070667 65.664708 -0.694695 32.869280 -25.134796 36.776003 -11.085531 2.148936 2.035538 -13.605551 -26.619173 -34.399440 17.810200 7.125000 0.000000 0.000000 5.861000 -68.794000 -3.348300 
19.602974 17.746077 1.330223 120.952681 -86.807022 -116.755956 -6.284557 -5.483578 -1.472087 -5.732898 -0.506001 -17.451479 2.613746 13.451238 34.767324 -6.209721 17.000399 0.353935 2.202600 -9.276000 -26.662500 4.459296 4.108832 -1.824435 -2.674723 6.234882 -15.064003 -2.784935 -13.038755 35.126643 4.750230 -14.885431 -5.618723 -0.192300 -2.823800 7.788600 -4.703959 0.271469 -1.989939 -0.362746 0.754831 -0.972665 0.734743 0.077212 5.743287 -7.710292 1.131927 -5.260785 1.749673 1.464070 18.548641 1.220200 0.525500 5.314500 -9.014785 -7.945870 1.679482 -61.759340 -6.034519 26.230052 24.397009 -35.133816 -11.921394 -0.005235 1.600726 8.423939 50.928679 -27.454743 -31.688100 -7.125000 0.000000 0.000000 11.111100 -11.686700 -13.357500 11.101284 7.668772 1.065858 65.763841 -0.678168 32.471687 -25.207310 36.863155 -11.208369 2.444275 1.627398 -12.140235 -34.763754 -31.506973 21.918300 7.125000 0.000000 0.000000 -8.311400 -67.662300 4.541300 
19.592363 17.752708 1.300823 137.385449 -87.408666 -132.901653 -6.253927 -5.331428 -1.475316 -4.572105 -0.653024 -17.618982 2.710867 13.507650 34.992951 -6.187292 16.931997 0.251341 2.173400 -9.218200 -26.480400 4.624922 4.294588 -1.837097 -1.584826 7.263695 -14.775646 -2.613456 -12.997560 34.845686 5.247701 -16.038279 -6.630176 -0.145000 -2.453700 6.761400 -3.516698 0.449998 -2.634025 -0.250603 0.928765 -0.989131 0.359683 0.230462 6.033297 -7.612048 1.089725 -5.184881 1.703646 1.404829 18.360003 1.195300 0.504400 5.215900 -9.000425 -7.913034 1.682213 -61.650030 -6.225788 26.285260 24.495025 -35.197319 -11.978331 0.004141 1.596200 8.708121 51.013165 -27.360834 -31.689200 -7.125000 0.000000 0.000000 11.183800 -11.620000 -13.437900 11.106932 7.681489 1.081097 65.824014 -0.455120 31.480262 -25.112636 36.807511 -11.281159 2.612230 1.305439 -8.800564 -39.431556 -30.192207 24.402000 7.125000 0.000000 0.000000 -16.038700 -67.298600 8.697100 
19.586063 17.751824 1.269432 152.295686 -87.643836 -147.648538 -6.149354 -5.183589 -1.476233 -3.846488 -0.745241 -17.744833 2.781059 13.556570 35.161113 -6.181932 16.911540 0.217230 2.171100 -9.213600 -26.466000 4.823231 4.455066 -1.843820 -0.884065 8.175396 -14.478749 -2.497114 -12.964331 34.639658 5.621355 -16.921757 -7.297055 -0.117900 -2.213700 6.096500 -2.696828 0.600610 -2.994787 -0.192943 1.052344 -1.028504 0.100038 0.346122 6.134689 -7.595786 1.081583 -5.162874 1.734718 1.385696 18.274056 1.212400 0.498800 5.173100 -8.992348 -7.888997 1.679112 -61.553410 -6.282674 26.394994 24.660954 -35.324145 -12.074667 0.012841 1.587085 8.826412 51.030757 -27.299224 -31.645000 -7.125000 0.000000 0.000000 11.210600 -11.545000 -13.459900 11.105107 7.698872 1.089973 65.880935 -0.280268 30.653914 -24.941486 36.670299 -11.261494 2.689411 1.092417 -5.724156 -41.407459 -29.743950 25.534600 7.125000 0.000000 0.000000 -19.305300 -67.256500 10.499400 
19.581310 17.749171 1.233952 162.042577 -87.756386 -157.316566 -6.039235 -5.096003 -1.489633 -3.403639 -0.842446 -17.762969 2.825135 13.574066 35.254651 -6.183013 16.907840 0.210908 2.177700 -9.226800 -26.507400 5.002048 4.538936 -1.828101 -0.436067 8.941149 -14.162804 -2.411197 -12.968695 34.529984 5.961428 -17.741839 -8.086256 -0.087200 -1.904700 5.242300 -2.180816 0.704644 -3.247500 -0.167921 1.135722 -1.050871 -0.064191 0.413716 6.215376 -7.538817 1.070227 -5.168406 1.718445 1.372643 18.207514 1.200700 0.496700 5.145400 -8.986471 -7.878536 1.678701 -61.486324 -6.344889 26.448477 24.818277 -35.443715 -12.169759 0.025470 1.578249 9.014924 51.043713 -27.271272 -31.622600 -7.125000 0.000000 0.000000 11.222900 -11.508000 -13.469600 11.105815 7.707689 1.097091 65.929842 -0.068000 29.845754 -24.717411 36.463765 -11.172122 2.724639 0.950329 -2.651546 -41.438572 -29.998987 25.719400 7.125000 0.000000 0.000000 -19.369000 -67.551400 10.664400 
